<svg xmlns="http://www.w3.org/2000/svg" width="256" height="256" viewBox="0 0 256 256" role="img" aria-label="Screen Color Picker">
  <defs>
    <linearGradient id="background" x1="36" y1="28" x2="220" y2="228" gradientUnits="userSpaceOnUse">
      <stop stop-color="#7C5CC4" />
      <stop offset="1" stop-color="#006A6A" />
    </linearGradient>
  </defs>
  <rect width="256" height="256" rx="58" fill="url(#background)" />
  <path fill="#FFFFFF" d="M210 64l-18-18a12 12 0 0 0-17 0l-34 34-17-17-17 17 13 13-70 70v43h43l70-70 13 13 17-17-17-17 34-34a12 12 0 0 0 0-17ZM83 182H74v-9l63-63 9 9-63 63Z" />
  <circle cx="58" cy="58" r="16" fill="#FFD166" />
</svg>
